<svg width="15" height="15" viewBox="0 0 15 15" fill="none" xmlns="http://www.w3.org/2000/svg">
<path d="M2.96875 15H12.0312C13.6681 15 15 13.6681 15 12.0312V2.96875C15 1.33188 13.6681 0 12.0312 0H2.96875C1.33188 0 0 1.33188 0 2.96875V12.0312C0 13.6681 1.33188 15 2.96875 15ZM0.9375 2.96875C0.9375 1.84875 1.84875 0.9375 2.96875 0.9375H12.0312C13.1512 0.9375 14.0625 1.84875 14.0625 2.96875V12.0312C14.0625 13.1512 13.1512 14.0625 12.0312 14.0625H2.96875C1.84875 14.0625 0.9375 13.1512 0.9375 12.0312V2.96875Z" fill="white"/>
<path d="M7.49998 11.3312C9.61248 11.3312 11.3312 9.61245 11.3312 7.49995C11.3312 5.38745 9.61248 3.6687 7.49998 3.6687C5.38748 3.6687 3.66873 5.38745 3.66873 7.49995C3.66873 9.61245 5.38748 11.3312 7.49998 11.3312ZM7.49998 4.6062C9.09561 4.6062 10.3937 5.90433 10.3937 7.49995C10.3937 9.09558 9.09561 10.3937 7.49998 10.3937C5.90436 10.3937 4.60623 9.09558 4.60623 7.49995C4.60623 5.90433 5.90436 4.6062 7.49998 4.6062Z" fill="white"/>
<path d="M11.4737 4.60117C12.09 4.60117 12.5544 4.13867 12.5544 3.52555C12.5544 2.88617 12.0656 2.44992 11.4744 2.44992C10.8581 2.44992 10.3937 2.91242 10.3937 3.52555C10.3937 4.16367 10.88 4.60117 11.4737 4.60117ZM11.5844 3.42242C11.7819 3.5968 11.3312 3.80867 11.3312 3.52617C11.3312 3.35742 11.5606 3.40117 11.5844 3.42242Z" fill="white"/>
</svg>
