<svg width="15" height="15" viewBox="0 0 15 15" fill="none" xmlns="http://www.w3.org/2000/svg">
<path d="M0.258871 7.28381L3.9271 9.37282C4.06898 9.4528 4.23648 9.44709 4.37211 9.35639L7.63721 7.1874L5.6609 9.18855C5.56027 9.29068 5.50277 9.43638 5.50277 9.58993V14.4643C5.50277 14.9785 6.07716 15.1949 6.34655 14.7864L7.93222 12.3774L11.8536 14.9292C12.1286 15.1099 12.4811 14.9285 12.5448 14.5692L14.9905 0.642576C15.0637 0.224062 14.6993 -0.11732 14.3605 0.0383727L0.297622 6.30538C-0.0798888 6.47392 -0.104265 7.07741 0.258871 7.28381ZM13.903 1.39247L11.7536 13.6315L8.03784 11.2133C7.83534 11.0812 7.57471 11.1397 7.43095 11.3568L6.4403 12.8616V9.83061L11.7848 4.41992C12.208 3.99212 11.7217 3.23151 11.2386 3.55575L4.11961 8.28511L1.62453 6.86459L13.903 1.39247Z" fill="white"/>
</svg>
