<svg width="15" height="15" viewBox="0 0 15 15" fill="none" xmlns="http://www.w3.org/2000/svg">
<path d="M0.295635 12.2468C1.68439 13.1281 3.30064 13.5937 4.96939 13.5937C7.41314 13.5937 9.65251 12.6549 11.2756 10.9506C12.8288 9.31931 13.6831 7.12743 13.6406 4.90306C14.2294 4.39931 14.9219 3.43743 14.9219 2.49993C14.9219 2.14056 14.5319 1.91243 14.2156 2.09556C13.6625 2.42056 13.1581 2.50556 12.6394 2.35993C11.58 1.32743 10.0031 1.10993 8.67439 1.82618C7.51314 2.45118 6.86751 3.59493 6.92564 4.84493C4.96376 4.60556 3.15126 3.62181 1.88751 2.09306C1.68001 1.84368 1.28626 1.87306 1.12126 2.15556C0.512511 3.19806 0.518761 4.40618 1.04814 5.38181C0.796261 5.42618 0.640635 5.63806 0.640635 5.86743C0.640635 6.84806 1.08189 7.74931 1.79251 8.36431C1.66001 8.49181 1.61626 8.68118 1.67251 8.84993C1.98501 9.78868 2.69251 10.5224 3.57689 10.8899C2.61501 11.3493 1.55126 11.5024 0.604385 11.3862C0.114385 11.3199 -0.12749 11.9787 0.295635 12.2468ZM5.09751 11.0506C5.44814 10.7812 5.26189 10.2199 4.82189 10.2106C4.04689 10.1943 3.34126 9.81243 2.90189 9.21181C3.11376 9.19806 3.33314 9.16556 3.54189 9.10931C4.01751 8.98056 3.99501 8.29431 3.51189 8.19743C2.63501 8.02118 1.94689 7.38243 1.68876 6.55993C1.92439 6.61806 2.16439 6.65056 2.40376 6.65493C2.87814 6.65743 3.05751 6.04931 2.67064 5.79493C1.79876 5.22056 1.42689 4.20618 1.67314 3.25243C3.19564 4.79493 5.26126 5.72431 7.44626 5.82931C7.75939 5.84868 7.99439 5.55431 7.92564 5.25618C7.62876 3.96931 8.34751 3.06743 9.11939 2.65181C9.88314 2.23931 11.1094 2.11056 12.0494 3.09681C12.3288 3.39118 13.2713 3.40243 13.7506 3.29056C13.5356 3.69556 13.205 4.07993 12.8956 4.29618C12.7638 4.38868 12.6881 4.54243 12.6963 4.70306C12.7969 6.75618 12.0319 8.79743 10.5975 10.3031C9.15251 11.8199 7.15439 12.6556 4.97001 12.6556C4.10126 12.6556 3.24939 12.5143 2.44439 12.2418C3.40689 12.0556 4.32126 11.6481 5.09751 11.0506Z" fill="white"/>
</svg>
