<svg width="15" height="15" viewBox="0 0 15 15" fill="none" xmlns="http://www.w3.org/2000/svg">
<g clip-path="url(#clip0)">
<path d="M7.59063 12.1876C9.76062 12.1876 8.98688 10.8138 9.15438 10.4188C9.15188 10.1238 9.14937 9.84006 9.15938 9.66756C9.29688 9.70631 9.62125 9.87069 10.2913 10.5219C11.3256 11.5657 11.59 12.1876 12.4256 12.1876H13.9637C14.4512 12.1876 14.705 11.9857 14.8319 11.8163C14.9544 11.6526 15.0744 11.3651 14.9431 10.9176C14.6 9.84006 12.5988 7.97944 12.4744 7.78319C12.4931 7.74694 12.5231 7.69881 12.5387 7.67381H12.5375C12.9325 7.15194 14.44 4.89319 14.6619 3.98944C14.6625 3.98819 14.6631 3.98631 14.6631 3.98444C14.7831 3.57194 14.6731 3.30444 14.5594 3.15319C14.3881 2.92694 14.1156 2.81256 13.7475 2.81256H12.2094C11.6944 2.81256 11.3038 3.07194 11.1063 3.54506C10.7756 4.38569 9.84688 6.11444 9.15063 6.72631C9.12937 5.85944 9.14375 5.19756 9.155 4.70569C9.1775 3.74631 9.25 2.81256 8.25437 2.81256H5.83687C5.21312 2.81256 4.61625 3.49381 5.2625 4.30256C5.8275 5.01131 5.46562 5.40631 5.5875 7.37256C5.1125 6.86319 4.2675 5.48756 3.67 3.72944C3.5025 3.25381 3.24875 2.81319 2.53437 2.81319H0.99625C0.3725 2.81319 0 3.15319 0 3.72256C0 5.00131 2.83063 12.1876 7.59063 12.1876ZM2.53437 3.75069C2.67 3.75069 2.68375 3.75069 2.78437 4.03631C3.39625 5.83819 4.76875 8.50444 5.77125 8.50444C6.52437 8.50444 6.52437 7.73256 6.52437 7.44194L6.52375 5.12819C6.4825 4.36256 6.20375 3.98131 6.02063 3.75006L8.21313 3.75256C8.21437 3.76319 8.20063 6.31194 8.21937 6.92944C8.21937 7.80631 8.91562 8.30881 10.0025 7.20881C11.1494 5.91444 11.9425 3.97944 11.9744 3.90069C12.0213 3.78819 12.0619 3.75006 12.2094 3.75006H13.7475H13.7537C13.7531 3.75194 13.7531 3.75381 13.7525 3.75569C13.6119 4.41194 12.2238 6.50319 11.7594 7.15256C11.7519 7.16256 11.745 7.17319 11.7381 7.18381C11.5338 7.51756 11.3675 7.88631 11.7663 8.40506H11.7669C11.8031 8.44881 11.8975 8.55131 12.035 8.69381C12.4625 9.13506 13.9288 10.6438 14.0588 11.2438C13.9725 11.2576 13.8788 11.2476 12.4256 11.2507C12.1163 11.2507 11.8744 10.7882 10.9513 9.85694C10.1212 9.04944 9.5825 8.71944 9.09188 8.71944C8.13937 8.71944 8.20875 9.49256 8.2175 10.4276C8.22062 11.4413 8.21438 11.1207 8.22125 11.1844C8.16563 11.2063 8.00625 11.2501 7.59063 11.2501C3.625 11.2501 1.0425 4.95569 0.943125 3.75256C0.9775 3.74944 1.45062 3.75131 2.53437 3.75069Z" fill="white"/>
</g>
<defs>
<clipPath id="clip0">
<rect width="15" height="15" fill="white"/>
</clipPath>
</defs>
</svg>
